ModelForces
version=1
nRows=5
nColumns=141
inDegrees=no

This file contains the forces exerted on a model during a simulation.

A force is a generalized force, meaning that it can be either a force (N) or a torque (Nm).

Units are S.I. units (second, meters, Newtons, ...)
Angles are in degrees.

endheader
time	glut_med1_r	glut_med2_r	glut_med3_r	glut_min1_r	glut_min2_r	glut_min3_r	semimem_r	semiten_r	bifemlh_r	bifemsh_r	sar_r	add_long_r	add_brev_r	add_mag1_r	add_mag2_r	add_mag3_r	tfl_r	pect_r	grac_r	glut_max1_r	glut_max2_r	glut_max3_r	iliacus_r	psoas_r	quad_fem_r	gem_r	peri_r	rect_fem_r	vas_med_r	vas_int_r	vas_lat_r	med_gas_r	lat_gas_r	soleus_r	tib_post_r	flex_dig_r	flex_hal_r	tib_ant_r	per_brev_r	per_long_r	per_tert_r	ext_dig_r	ext_hal_r	glut_med1_l	glut_med2_l	glut_med3_l	glut_min1_l	glut_min2_l	glut_min3_l	semimem_l	semiten_l	bifemlh_l	bifemsh_l	sar_l	add_long_l	add_brev_l	add_mag1_l	add_mag2_l	add_mag3_l	tfl_l	pect_l	grac_l	glut_max1_l	glut_max2_l	glut_max3_l	iliacus_l	psoas_l	quad_fem_l	gem_l	peri_l	rect_fem_l	vas_med_l	vas_int_l	vas_lat_l	med_gas_l	lat_gas_l	soleus_l	tib_post_l	flex_dig_l	flex_hal_l	tib_ant_l	per_brev_l	per_long_l	per_tert_l	ext_dig_l	ext_hal_l	ercspn_r	ercspn_l	intobl_r	intobl_l	extobl_r	extobl_l	contactForce_femur_lat_meniscii_l.femur_lat_l.force.X	contactForce_femur_lat_meniscii_l.femur_lat_l.force.Y	contactForce_femur_lat_meniscii_l.femur_lat_l.force.Z	contactForce_femur_lat_meniscii_l.femur_lat_l.torque.X	contactForce_femur_lat_meniscii_l.femur_lat_l.torque.Y	contactForce_femur_lat_meniscii_l.femur_lat_l.torque.Z	contactForce_femur_lat_meniscii_l.meniscus_lat_l.force.X	contactForce_femur_lat_meniscii_l.meniscus_lat_l.force.Y	contactForce_femur_lat_meniscii_l.meniscus_lat_l.force.Z	contactForce_femur_lat_meniscii_l.meniscus_lat_l.torque.X	contactForce_femur_lat_meniscii_l.meniscus_lat_l.torque.Y	contactForce_femur_lat_meniscii_l.meniscus_lat_l.torque.Z	contactForce_femur_med_meniscii_l.femur_med_l.force.X	contactForce_femur_med_meniscii_l.femur_med_l.force.Y	contactForce_femur_med_meniscii_l.femur_med_l.force.Z	contactForce_femur_med_meniscii_l.femur_med_l.torque.X	contactForce_femur_med_meniscii_l.femur_med_l.torque.Y	contactForce_femur_med_meniscii_l.femur_med_l.torque.Z	contactForce_femur_med_meniscii_l.meniscus_med_l.force.X	contactForce_femur_med_meniscii_l.meniscus_med_l.force.Y	contactForce_femur_med_meniscii_l.meniscus_med_l.force.Z	contactForce_femur_med_meniscii_l.meniscus_med_l.torque.X	contactForce_femur_med_meniscii_l.meniscus_med_l.torque.Y	contactForce_femur_med_meniscii_l.meniscus_med_l.torque.Z	contactForce_femur_lat_meniscii_r.femur_lat_r.force.X	contactForce_femur_lat_meniscii_r.femur_lat_r.force.Y	contactForce_femur_lat_meniscii_r.femur_lat_r.force.Z	contactForce_femur_lat_meniscii_r.femur_lat_r.torque.X	contactForce_femur_lat_meniscii_r.femur_lat_r.torque.Y	contactForce_femur_lat_meniscii_r.femur_lat_r.torque.Z	contactForce_femur_lat_meniscii_r.meniscus_lat_r.force.X	contactForce_femur_lat_meniscii_r.meniscus_lat_r.force.Y	contactForce_femur_lat_meniscii_r.meniscus_lat_r.force.Z	contactForce_femur_lat_meniscii_r.meniscus_lat_r.torque.X	contactForce_femur_lat_meniscii_r.meniscus_lat_r.torque.Y	contactForce_femur_lat_meniscii_r.meniscus_lat_r.torque.Z	contactForce_femur_med_meniscii_r.femur_med_r.force.X	contactForce_femur_med_meniscii_r.femur_med_r.force.Y	contactForce_femur_med_meniscii_r.femur_med_r.force.Z	contactForce_femur_med_meniscii_r.femur_med_r.torque.X	contactForce_femur_med_meniscii_r.femur_med_r.torque.Y	contactForce_femur_med_meniscii_r.femur_med_r.torque.Z	contactForce_femur_med_meniscii_r.meniscus_med_r.force.X	contactForce_femur_med_meniscii_r.meniscus_med_r.force.Y	contactForce_femur_med_meniscii_r.meniscus_med_r.force.Z	contactForce_femur_med_meniscii_r.meniscus_med_r.torque.X	contactForce_femur_med_meniscii_r.meniscus_med_r.torque.Y	contactForce_femur_med_meniscii_r.meniscus_med_r.torque.Z
      0.50095005	      9.98062206	      5.52996669	      5.00508628	      3.75448015	      5.84117712	      3.30289963	      7.98280167	      3.88456801	      6.27572525	      6.80646785	      1.64907099	      5.49145626	      3.89001506	      2.28584197	      2.04973462	      3.46867183	      5.50993315	      2.21259170	      1.55279275	      3.18261238	      4.73047851	      3.03830999	     27.01438874	     16.17766456	      2.20180750	      0.92377032	      2.31641647	     11.08688394	      6.51289828	      6.37401338	      7.94980115	      4.49909170	      1.68818455	      5.43452852	     11.49304024	      2.91346325	      2.26152082	     22.20261562	      3.99786567	      7.66625467	     14.68995219	     11.54079241	      2.98252842	      9.83763260	      5.58255957	      5.15922118	      5.94262265	      5.81147587	      3.39811813	      7.94735232	      3.86682557	      6.29583130	      6.77657161	      1.63970740	      5.47232597	      3.99835826	      2.29708203	      2.05360379	      3.47401388	      5.58616185	      2.21047258	      1.54454751	      3.21785023	      4.77396278	      3.07697566	     26.91949485	     16.10879917	      2.30830978	      0.99838321	      2.50759359	     11.12414517	      6.50810307	      7.26911208	      7.93141112	      4.43590000	      1.69794676	      5.44773050	     11.41909070	      2.90982339	      2.23403194	     22.14507831	      4.02442977	      7.72200258	     14.73041429	     11.57182456	      2.99911401	     25.14498602	     25.14498602	      9.05440907	      9.05440907	     26.85348191	     26.85348191	      0.07752464	      0.14025895	     -0.09342615	      0.04004745	     -0.00146293	      0.03103563	     -0.07752464	     -0.14025895	      0.09342615	     -0.00612321	      0.00183520	     -0.00232655	     -1.68022471	     16.58067893	     -3.53382743	      0.99567642	      0.00845103	     -0.42862534	      1.68022471	    -16.58067893	      3.53382743	      0.11456379	     -0.06511604	     -0.36513085	      0.59998779	      1.12005014	      0.71645336	     -0.30893156	      0.01199413	      0.23997858	     -0.59998779	     -1.12005014	     -0.71645336	      0.04839213	     -0.01469259	     -0.01757347	     -1.78485937	     15.41362525	      3.27039760	     -0.93399737	     -0.00404371	     -0.48821250	      1.78485937	    -15.41362525	     -3.27039760	     -0.10666363	      0.05699407	     -0.32929991
      0.50145245	      9.97749341	      5.52939519	      5.00482610	      4.97624236	      5.84151142	      3.30118270	      7.97976135	      3.88483167	      6.27656034	      6.81039826	      1.64873955	      5.49205931	      3.84757023	      2.28731207	      2.05086068	      3.47045294	      5.51044812	      2.21262050	      1.55292428	      3.18309838	      4.73181357	      3.04038750	     27.01552248	     16.17645571	      2.20221243	      0.92387421	      2.31663986	     11.09200175	      6.51735059	      6.38046300	      7.95463422	      4.50220802	      1.69079685	      5.43541911	     11.46648986	      2.91556524	      2.24856227	     22.19919843	      4.00700344	      7.68498243	     14.69554580	     11.55165456	      2.99312477	      9.83256060	      5.58172485	      5.15960216	      5.94252596	      5.81109827	      3.39605987	      7.94005941	      3.86544582	      6.29437595	      6.77567356	      1.63891739	      5.47327901	      3.89346028	      2.29876118	      2.05474086	      3.47559889	      5.58498802	      2.21066583	      1.54419892	      3.21828472	      4.77514176	      3.07904103	     26.92096409	     16.10797326	      2.31008203	      0.99911573	      2.50806626	     11.12750675	      6.51069551	      7.27286023	      7.93546974	      4.43598427	      1.69945563	      5.44946474	     11.39560146	      2.91173892	      2.22127317	     22.14192103	      4.03240188	      7.73962646	     14.73502002	     11.58404643	      3.00985091	     25.14404769	     25.14404769	      9.05404111	      9.05404111	     26.85315139	     26.85315139	      0.08958310	      0.16300461	     -0.10696982	      0.04586144	     -0.00168210	      0.03584554	     -0.08958310	     -0.16300461	      0.10696982	     -0.00705989	      0.00212009	     -0.00268331	     -1.70668199	     16.57160901	     -3.53310368	      0.99509242	      0.00758466	     -0.44052685	      1.70668199	    -16.57160901	      3.53310368	      0.11466708	     -0.06476901	     -0.36376408	      0.63687543	      1.19143443	      0.75969801	     -0.32760534	      0.01275566	      0.25465188	     -0.63687543	     -1.19143443	     -0.75969801	      0.05142088	     -0.01561976	     -0.01862721	     -1.81427580	     15.39838517	      3.24504564	     -0.92317411	     -0.00250317	     -0.50147832	      1.81427580	    -15.39838517	     -3.24504564	     -0.10759238	      0.05578934	     -0.32766738
      0.50396443	      9.95370110	      5.52626820	      5.00918407	      6.41639954	      5.83800701	      3.29173671	      7.97032584	      3.88766109	      6.28439868	      6.83609311	      1.64701545	      5.49671409	      3.70194761	      2.29735739	      2.05749084	      3.47970578	      5.51577572	      2.21388795	      1.55385762	      3.18641665	      4.73977105	      3.05300870	     27.01954829	     16.16953253	      2.21675645	      0.92742036	      2.31924891	     11.12223299	      6.54154655	      6.41583324	      7.98048404	      4.52203014	      1.70772125	      5.44267164	     11.34551450	      2.92268062	      2.18336018	     22.18064470	      4.04923403	      7.77541027	     14.72102606	     11.62126326	      3.04710903	      9.80666416	      5.57773861	      5.16185781	      5.94286240	      5.80918589	      3.38538812	      7.90525762	      3.85898960	      6.28883274	      6.77333934	      1.63512685	      5.47803632	      3.63702234	      2.30710027	      2.06045679	      3.48363057	      5.57999654	      2.21154984	      1.54257397	      3.22056444	      4.78118290	      3.08949781	     26.92773999	     16.10352589	      2.31906718	      1.00289118	      2.51034974	     11.14581860	      6.52424648	      7.29257771	      7.95662744	      4.44053219	      1.70969003	      5.46177654	     11.29275252	      2.91842003	      2.15760405	     22.12479688	      4.06790103	      7.82338304	     14.75482567	     11.65965125	      3.06410295	     25.13944606	     25.13944606	      9.05223664	      9.05223664	     26.85153052	     26.85153052	      0.17264376	      0.31254813	     -0.20534789	      0.08804103	     -0.00327109	      0.06904477	     -0.17264376	     -0.31254813	      0.20534789	     -0.01358246	      0.00411441	     -0.00516106	     -1.77245248	     16.53702659	     -3.51569730	      0.98598451	      0.00469121	     -0.47158050	      1.77245248	    -16.53702659	      3.51569730	      0.11591723	     -0.06332824	     -0.35976256	      0.82436801	      1.57501026	      0.97386703	     -0.42027397	      0.01663076	      0.32887357	     -0.82436801	     -1.57501026	     -0.97386703	      0.06709058	     -0.02037323	     -0.02385502	     -1.98257947	     15.32172585	      3.10085935	     -0.86167700	      0.00598718	     -0.57682114	      1.98257947	    -15.32172585	     -3.10085935	     -0.11292451	      0.04913229	     -0.31865653
      0.50625587	      9.92151081	      5.52345559	      5.01859274	      1.19087742	      5.83152791	      3.28215283	      7.97003814	      3.89232194	      6.29698574	      6.86703579	      1.64558064	      5.50246136	      4.24623581	      2.30841608	      2.06450127	      3.48860191	      5.52477702	      2.21537020	      1.55502148	      3.19034451	      4.74834517	      3.06668637	     27.02091876	     16.16183680	      2.23395080	      0.93414293	      2.32410678	     11.15675274	      6.56481173	      6.45060126	      8.00367187	      4.54601485	      1.72866007	      5.45251389	     11.25394672	      2.92448931	      2.12390214	     22.16237846	      4.08217629	      7.85239693	     14.74035684	     11.70670922	      3.09664797	      9.78200350	      5.57430340	      5.16449238	      5.94520866	      5.80703307	      3.37511708	      7.87670330	      3.85408167	      6.28669334	      6.77612496	      1.63188276	      5.48248329	      4.55014231	      2.31498094	      2.06587523	      3.49120905	      5.57714893	      2.21228998	      1.54139752	      3.22289071	      4.78711420	      3.09955050	     26.93261627	     16.09873481	      2.32766563	      1.00658469	      2.51242095	     11.16509074	      6.53714843	      7.31193943	      7.97651203	      4.45092504	      1.72314424	      5.47717899	     11.22156948	      2.92055726	      2.10028911	     22.10755962	      4.09365269	      7.89284682	     14.76814068	     11.74935373	      3.11327856	     25.13537633	     25.13537633	      9.05064077	      9.05064077	     26.85009703	     26.85009703	      0.26964779	      0.49237998	     -0.32239696	      0.13824252	     -0.00517005	      0.10773203	     -0.26964779	     -0.49237998	      0.32239696	     -0.02141524	      0.00646101	     -0.00804792	     -1.83345417	     16.51213100	     -3.48238887	      0.97006684	      0.00128968	     -0.50018863	      1.83345417	    -16.51213100	      3.48238887	      0.11788360	     -0.06110627	     -0.35623686	      1.01762029	      1.97782004	      1.19306401	     -0.51522204	      0.02066333	      0.40519373	     -1.01762029	     -1.97782004	     -1.19306401	      0.08343955	     -0.02531127	     -0.02920098	     -2.12029708	     15.23232052	      2.95664690	     -0.80079167	      0.01339064	     -0.63912254	      2.12029708	    -15.23232052	     -2.95664690	     -0.11800911	      0.04305060	     -0.31055513
      0.50673675	      9.91135208	      5.52277707	      5.02273781	      0.00000000	      5.82811012	      3.28001434	      7.97097258	      3.89353933	      6.30028922	      6.87496551	      1.64516449	      5.50424801	      4.02050205	      2.31176947	      2.06631745	      3.49053056	      5.52724528	      2.21620739	      1.55530115	      3.19148479	      4.75058490	      3.07034597	     27.02075714	     16.16001630	      2.24319774	      0.93679000	      2.32600042	     11.16481528	      6.56974671	      6.45822660	      8.00841912	      4.55130155	      1.73379648	      5.45490022	     11.23717944	      2.92432038	      2.11150221	     22.15848762	      4.08835028	      7.86778684	     14.74391736	     11.72725031	      3.10694701	      9.77663094	      5.57355611	      5.16508345	      5.94493201	      5.80644991	      3.37288193	      7.87120691	      3.85321289	      6.28663847	      6.77740776	      1.63122411	      5.48347192	      4.19716855	      2.31671395	      2.06705350	      3.49283620	      5.57681786	      2.21248617	      1.54119411	      3.22339449	      4.78839403	      3.10173291	     26.93349393	     16.09763282	      2.32962875	      1.00740505	      2.51286312	     11.16949228	      6.53993844	      7.31621322	      7.98077027	      4.45386435	      1.72649318	      5.48086949	     11.20950691	      2.92055207	      2.08842354	     22.10378659	      4.09822837	      7.90652046	     14.77033719	     11.77063381	      3.12343417	     25.13453741	     25.13453741	      9.05031181	      9.05031181	     26.84980153	     26.84980153	      0.29141541	      0.53488947	     -0.34896591	      0.14964367	     -0.00560194	      0.11638192	     -0.29141541	     -0.53488947	      0.34896591	     -0.02322916	      0.00698963	     -0.00868833	     -1.82064760	     16.47687020	     -3.47744483	      0.96867357	      0.00152574	     -0.49578969	      1.82064760	    -16.47687020	      3.47744483	      0.11761204	     -0.06120897	     -0.35573669	      1.05277655	      2.07058965	      1.22204815	     -0.52800523	      0.02127165	      0.41880956	     -1.05277655	     -2.07058965	     -1.22204815	      0.08642932	     -0.02617482	     -0.03009066	     -2.10627965	     15.21989480	      2.85414162	     -0.75704784	      0.01486810	     -0.63381423	      2.10627965	    -15.21989480	     -2.85414162	     -0.12205826	      0.04059702	     -0.31071374
